<svg id="Layer_1" data-name="Layer 1" xmlns="http://www.w3.org/2000/svg" viewBox="0 0 60.8 60.7"><defs><style>.cls-1{fill:#9bc9ff;}.cls-2{fill:#fff;}.cls-3{fill:#1e81ce;}</style></defs><title>icon-cert</title><g id="C33_Badges_insignia_post_ribbon_stamp" data-name="C33, Badges, insignia, post, ribbon, stamp"><rect class="cls-1" x="1.31" y="1.32" width="58.17" height="58.17"/><rect class="cls-2" x="6.37" y="6.37" width="48.05" height="48.05"/><polygon class="cls-1" points="33.99 39.65 31.06 41.88 32.17 45.52 29.23 43.3 26.3 45.52 27.41 41.88 24.58 39.65 28.12 39.65 29.23 36.11 30.35 39.65 33.99 39.65"/><path class="cls-3" d="M86.28,79.84H28.11a1.34,1.34,0,0,1-1.31-1.31V20.46a1.33,1.33,0,0,1,1.31-1.31H86.28a1.34,1.34,0,0,1,1.32,1.31V78.63A1.51,1.51,0,0,1,86.28,79.84ZM29.33,77.31H85V21.68H29.33Z" transform="translate(-26.8 -19.15)"/><path class="cls-3" d="M81.22,74.78h-48a1.33,1.33,0,0,1-1.31-1.31V25.52a1.34,1.34,0,0,1,1.31-1.32H81.22a1.35,1.35,0,0,1,1.32,1.32V73.57A1.49,1.49,0,0,1,81.22,74.78ZM34.39,72.25H79.91V26.73H34.39Z" transform="translate(-26.8 -19.15)"/><path class="cls-3" d="M69.29,35.64H44A1.32,1.32,0,0,1,44,33H69.29a1.34,1.34,0,0,1,1.31,1.32A1.42,1.42,0,0,1,69.29,35.64Z" transform="translate(-26.8 -19.15)"/><path class="cls-3" d="M69.29,43.12H44a1.32,1.32,0,1,1,0-2.63H69.29a1.34,1.34,0,0,1,1.31,1.32A1.42,1.42,0,0,1,69.29,43.12Z" transform="translate(-26.8 -19.15)"/><path class="cls-3" d="M69.29,50.71H44a1.32,1.32,0,1,1,0-2.63H69.29a1.32,1.32,0,0,1,0,2.63Z" transform="translate(-26.8 -19.15)"/><path class="cls-3" d="M59,66a1.33,1.33,0,0,1-.81-.3L56,64.06l-2.12,1.62a1.39,1.39,0,0,1-1.52,0,1.5,1.5,0,0,1-.5-1.42l.81-2.73-2.13-1.72a1.24,1.24,0,0,1-.4-1.41,1.21,1.21,0,0,1,1.21-.81h2.73l.81-2.73A1.3,1.3,0,0,1,56.14,54h0a1.41,1.41,0,0,1,1.21.91l.81,2.73h2.63A1.31,1.31,0,0,1,62,58.4a1.24,1.24,0,0,1-.4,1.41l-2.23,1.72.81,2.73a1.17,1.17,0,0,1-.5,1.42A.94.94,0,0,1,59,66ZM55,60.12a1.15,1.15,0,0,1,.41,1.21,1.1,1.1,0,0,1,1.11,0,1.38,1.38,0,0,1,.4-1.21,1.37,1.37,0,0,1-1-.61A.92.92,0,0,1,55,60.12Z" transform="translate(-26.8 -19.15)"/></g></svg>